<?xml version="1.0" standalone="no"?>
<!DOCTYPE svg PUBLIC "-//W3C//DTD SVG 20010904//EN"
 "http://www.w3.org/TR/2001/REC-SVG-20010904/DTD/svg10.dtd">
<svg version="1.0" xmlns="http://www.w3.org/2000/svg"
 width="1080.000000pt" height="1080.000000pt" viewBox="0 0 1080.000000 1080.000000"
 preserveAspectRatio="xMidYMid meet">
<metadata>
Created by potrace 1.14, written by Peter Selinger 2001-2017
</metadata>
<g transform="translate(0.000000,1080.000000) scale(0.100000,-0.100000)"
fill="#000000" stroke="none">
<path d="M3579 8013 c-13 -16 -12 -17 4 -4 9 7 17 15 17 17 0 8 -8 3 -21 -13z"/>
<path d="M1883 8014 c13 -13 -46 -33 -61 -21 -7 6 -12 6 -11 1 4 -21 -2 -28
-12 -14 -9 13 -10 12 -5 -2 6 -19 -9 -34 -17 -18 -3 6 -4 5 -3 -2 2 -7 -4 -19
-13 -26 -14 -12 -14 -13 2 -8 11 3 16 2 12 -4 -3 -6 -13 -10 -21 -10 -8 0 -14
-5 -14 -11 0 -5 5 -7 11 -3 7 4 10 1 7 -7 -3 -8 -11 -13 -18 -11 -10 2 -11 0
-2 -11 9 -10 9 -16 0 -25 -9 -9 -9 -12 1 -12 11 0 11 -3 0 -17 -9 -10 -9 -14
-2 -10 9 6 11 -1 8 -23 -2 -17 2 -36 11 -44 11 -11 11 -16 1 -19 -9 -4 -9 -6
1 -6 7 -1 10 -5 7 -11 -4 -6 1 -7 11 -3 14 5 15 3 5 -16 -9 -17 -9 -21 1 -19
7 2 12 -2 11 -9 -2 -7 3 -10 11 -7 8 3 25 0 38 -7 13 -7 26 -13 30 -14 3 0 10
-4 15 -9 5 -5 2 -6 -6 -1 -10 6 -12 4 -6 -5 6 -10 11 -9 22 5 7 11 13 14 13 8
0 -6 45 -10 130 -9 81 1 130 -3 130 -9 0 -7 3 -7 8 0 10 15 46 19 37 5 -6 -9
-2 -9 14 -1 16 9 21 9 21 -1 0 -8 3 -9 8 -3 10 15 46 19 37 5 -6 -9 -2 -9 14
-1 16 9 21 9 21 -1 0 -10 2 -10 9 0 11 17 21 17 32 0 5 -7 9 -8 9 -2 0 6 7 11
15 11 8 0 15 -5 15 -11 0 -6 4 -5 9 2 4 8 12 14 16 14 4 0 12 -6 16 -14 5 -7
9 -8 9 -3 0 6 13 10 30 11 16 1 27 -3 23 -8 -3 -6 4 -5 15 1 11 6 23 11 27 11
3 0 3 -5 -1 -11 -4 -8 0 -8 15 0 16 9 21 9 21 -1 0 -8 3 -9 8 -3 4 6 21 10 37
10 17 0 33 -4 37 -10 5 -7 8 -7 8 0 0 6 16 10 35 10 19 0 35 -4 35 -10 0 -7 3
-7 8 0 4 6 21 10 37 10 17 0 33 -4 37 -10 5 -7 8 -7 8 0 0 6 32 10 75 10 43 0
75 -4 75 -10 0 -7 3 -7 8 0 4 6 21 10 37 10 17 0 33 -4 37 -10 5 -7 8 -7 8 0
0 6 16 10 35 10 19 0 35 -4 35 -10 0 -7 3 -7 8 0 4 6 16 10 27 10 11 0 23 -4
27 -10 5 -6 8 -5 8 3 0 10 5 10 21 1 15 -8 19 -8 15 0 -4 6 -2 11 3 11 6 0 11
-5 11 -11 0 -8 4 -8 14 0 11 9 15 9 19 -1 4 -10 6 -10 6 0 1 6 6 12 12 12 6 0
8 -8 5 -17 -6 -17 -5 -17 7 -1 10 12 17 14 31 6 14 -8 17 -7 12 1 -4 6 -2 11
3 11 6 0 11 -5 11 -11 0 -8 4 -8 13 0 10 8 17 7 27 -2 10 -9 11 -9 6 1 -4 6
-3 12 3 12 5 0 12 -6 14 -12 4 -10 6 -10 6 0 1 10 6 10 22 1 15 -8 19 -8 15 0
-4 6 -2 11 3 11 6 0 11 -5 11 -11 0 -8 4 -8 13 0 10 8 17 7 27 -2 10 -9 11 -9
6 1 -4 6 -3 12 3 12 5 0 12 -8 14 -17 4 -16 5 -16 6 1 1 15 4 16 16 6 8 -7 15
-8 15 -3 0 10 60 8 88 -2 6 -2 12 1 12 7 0 7 5 6 15 -2 12 -10 15 -10 15 1 0
11 2 11 10 -1 5 -8 10 -10 10 -4 0 6 13 9 30 6 18 -2 28 -9 24 -16 -3 -6 0 -4
8 5 9 11 21 13 41 8 18 -5 27 -3 27 4 0 7 4 6 10 -3 7 -11 10 -11 10 -2 0 10
5 10 20 2 15 -8 20 -8 20 2 0 9 3 9 10 -2 5 -8 10 -10 10 -5 0 6 11 10 24 10
13 0 22 -3 20 -7 -2 -4 0 -9 6 -13 5 -3 10 0 10 7 0 14 37 17 58 4 7 -4 12 -2
12 6 0 9 3 9 10 -2 8 -13 10 -13 10 0 0 10 3 11 10 4 7 -7 29 -8 55 -4 24 4
42 3 39 -2 -3 -4 0 -8 5 -8 6 0 11 5 11 11 0 5 5 7 11 4 15 -10 109 -11 109
-2 0 5 5 5 11 2 13 -9 79 -12 79 -5 0 5 628 2 728 -3 23 -1 42 3 43 8 0 6 4 1
9 -10 5 -11 9 -15 9 -9 1 7 12 14 26 16 13 3 22 1 19 -3 -6 -11 -6 -11 34 0
18 6 30 6 27 1 -3 -5 -1 -11 5 -15 5 -3 10 -1 10 5 0 7 7 10 15 6 8 -3 15 0
15 6 0 7 4 7 13 -1 8 -6 17 -8 20 -4 4 3 13 0 22 -7 13 -11 14 -10 9 5 -6 14
-4 16 7 10 19 -13 49 -14 49 -2 0 5 6 4 13 -2 8 -6 17 -8 21 -4 4 4 11 1 16
-7 8 -13 10 -12 10 3 0 12 4 16 12 11 19 -12 48 -12 48 -1 0 6 10 2 22 -9 12
-10 18 -13 13 -5 -6 11 -4 13 8 8 10 -4 17 -2 17 5 0 7 4 7 13 -1 8 -6 17 -8
21 -4 4 4 11 1 16 -7 8 -13 10 -12 10 3 0 17 15 23 24 9 5 -9 89 -8 104 2 6 3
13 2 17 -4 4 -6 11 -7 17 -4 6 4 14 0 19 -7 5 -9 9 -10 9 -2 0 7 16 11 45 9
25 -1 45 2 45 6 0 5 5 6 10 3 6 -4 7 -12 3 -18 -5 -9 -3 -9 8 -1 18 15 61 25
53 13 -6 -11 -6 -11 34 0 20 6 30 6 27 0 -8 -11 -7 -11 33 1 31 8 32 8 20 -7
-10 -13 -10 -15 0 -9 21 13 73 25 67 16 -3 -4 2 -11 11 -14 9 -3 12 -2 9 4 -4
7 6 9 29 7 20 -2 37 1 40 7 2 6 5 2 5 -9 1 -17 3 -17 11 -5 8 12 13 13 29 3
17 -11 19 -10 14 4 -5 12 -3 14 8 7 8 -4 22 -7 32 -6 9 2 17 -2 17 -8 0 -7 7
-4 16 5 15 15 18 15 37 -2 11 -10 17 -12 12 -4 -5 9 -3 12 6 9 8 -3 27 -1 42
3 26 7 27 6 15 -9 -11 -14 -9 -14 16 2 16 10 26 14 22 8 -3 -5 1 -13 10 -16 8
-3 12 -2 9 3 -3 6 8 9 24 9 19 -1 28 -5 24 -12 -5 -8 -3 -8 8 0 20 15 61 16
52 1 -5 -9 -3 -9 8 -1 20 15 61 16 52 1 -4 -7 0 -6 10 2 14 11 20 11 34 0 9
-8 14 -9 10 -3 -4 7 3 12 18 12 14 0 28 -5 31 -10 3 -5 12 -4 20 3 8 6 17 9
21 6 3 -4 12 -2 20 5 11 9 12 7 7 -7 -6 -14 -4 -16 7 -9 22 13 42 14 58 1 11
-9 13 -9 8 0 -9 15 32 14 52 -1 11 -8 13 -8 8 1 -9 15 32 14 52 -1 11 -8 13
-8 8 0 -4 7 2 12 18 12 14 0 25 -6 25 -12 0 -8 2 -8 8 0 9 14 43 14 61 0 11
-8 13 -8 8 1 -9 15 32 14 52 -1 11 -8 13 -8 8 1 -9 15 32 14 52 -1 11 -8 13
-8 8 1 -9 15 32 14 52 -1 11 -8 13 -8 8 1 -9 15 32 14 52 -1 11 -8 13 -8 7 2
-5 8 -1 11 16 8 13 -2 29 1 36 7 9 7 11 5 6 -9 -7 -18 -6 -18 16 1 13 11 20
14 15 6 -6 -11 -2 -13 19 -7 18 4 26 2 26 -6 0 -9 3 -9 8 -2 10 14 84 15 75 0
-4 -6 1 -5 10 3 14 11 20 11 34 0 9 -8 14 -9 10 -3 -4 7 2 12 18 12 14 0 25
-6 25 -12 0 -7 3 -8 8 -1 10 16 54 17 45 2 -5 -9 -3 -9 8 0 12 10 18 10 29 0
10 -10 11 -9 5 2 -6 10 -4 13 7 8 9 -3 21 0 28 6 9 9 11 9 7 1 -8 -15 20 -27
29 -13 4 6 12 5 22 -3 12 -10 14 -10 8 0 -8 14 19 12 43 -2 9 -6 12 -5 7 2 -4
7 1 10 14 9 11 -1 20 -6 20 -12 0 -6 3 -7 8 0 11 16 46 19 36 3 -6 -10 -3 -9
10 1 13 11 20 11 28 3 9 -9 17 -7 32 6 11 9 16 12 13 5 -9 -15 9 -27 18 -13 5
8 11 8 20 0 10 -8 15 -8 20 1 6 8 10 7 16 -2 5 -8 9 -9 9 -4 0 6 9 11 20 12
11 1 20 -3 20 -9 0 -7 5 -6 14 1 10 9 16 9 21 1 5 -8 11 -8 19 -1 9 7 16 7 23
0 8 -8 13 -8 17 0 4 6 12 11 17 11 6 0 7 -5 3 -11 -5 -8 -1 -8 14 0 26 14 35
14 26 0 -3 -6 6 -3 22 7 15 11 25 13 21 7 -6 -9 -3 -11 7 -7 9 3 13 11 9 18
-4 6 0 6 9 -2 13 -10 19 -10 32 3 9 9 14 21 11 26 -9 13 9 11 24 -3 10 -11 11
-9 5 6 -5 13 -4 17 4 12 8 -5 10 -1 5 10 -4 10 -2 15 3 11 6 -3 16 4 23 15 12
19 11 20 -6 14 -12 -4 -10 0 7 14 14 11 19 20 13 20 -7 0 -13 5 -13 11 0 5 5
7 11 3 8 -4 8 0 0 15 -8 14 -8 21 -1 21 7 0 8 6 1 18 -6 11 -6 24 0 35 8 13 6
15 -5 11 -8 -3 -14 0 -13 8 0 7 -1 24 -2 38 -1 21 -3 22 -12 10 -9 -12 -10
-11 -6 7 6 25 -20 52 -45 48 -10 -2 -18 1 -18 6 0 6 -4 8 -9 4 -6 -3 -14 3
-20 12 -10 17 -10 17 -11 -2 -1 -19 -1 -19 -14 -2 -10 13 -15 15 -18 5 -4 -10
-9 -10 -23 2 -10 8 -16 10 -12 3 9 -14 -60 -13 -82 1 -11 7 -13 5 -8 -9 7 -17
6 -17 -19 0 -21 14 -26 14 -22 3 7 -16 -25 -18 -39 -3 -5 4 -2 5 6 0 10 -6 12
-4 6 4 -5 9 -10 10 -18 2 -15 -15 -30 -14 -21 2 6 9 4 9 -8 -1 -13 -10 -17
-10 -21 0 -4 8 -6 7 -6 -4 -1 -10 -6 -18 -12 -18 -5 0 -7 5 -4 10 3 6 3 10 -2
11 -4 0 -18 2 -30 3 -12 1 -20 -1 -17 -6 8 -13 -10 -10 -25 5 -11 10 -13 10
-7 0 4 -8 1 -13 -8 -13 -8 0 -17 6 -19 13 -4 10 -6 10 -6 0 -1 -7 -11 -13 -24
-13 -13 0 -29 6 -36 13 -11 10 -13 10 -7 0 4 -7 3 -13 -1 -13 -5 0 -15 6 -22
13 -11 10 -13 10 -7 0 9 -17 -6 -17 -23 0 -11 10 -13 10 -7 0 8 -15 -10 -18
-19 -3 -3 5 -12 7 -20 4 -8 -4 -12 -10 -9 -15 3 -5 -2 -6 -10 -3 -9 3 -13 11
-9 18 4 6 -1 5 -10 -3 -14 -11 -17 -11 -17 0 0 11 -3 11 -11 -1 -8 -11 -12
-12 -16 -2 -2 6 -9 12 -14 12 -6 0 -7 -5 -4 -10 8 -13 -8 -13 -22 1 -8 8 -13
8 -17 0 -10 -15 -29 -14 -20 2 6 10 4 10 -7 0 -15 -15 -33 -18 -25 -5 3 5 -1
9 -9 9 -8 0 -12 -4 -9 -9 8 -12 -10 -10 -23 3 -8 8 -13 8 -17 0 -4 -6 -12 -11
-17 -11 -6 0 -7 6 -3 13 5 8 2 8 -9 -2 -14 -11 -17 -11 -17 0 0 8 -6 5 -15 -7
-11 -14 -14 -15 -9 -2 6 17 -10 19 -33 5 -8 -5 -13 -3 -13 5 0 9 -3 9 -10 -2
-7 -11 -10 -11 -10 -2 0 7 -5 10 -10 7 -6 -4 -7 -12 -3 -18 4 -7 0 -6 -10 2
-9 7 -17 10 -17 5 0 -5 -5 -2 -10 6 -8 12 -10 12 -10 -5 -1 -19 -1 -19 -11 -2
-9 15 -13 16 -26 6 -12 -10 -16 -10 -24 2 -5 8 -9 9 -9 4 0 -6 -9 -11 -20 -12
-11 -1 -18 2 -16 6 3 4 -4 7 -14 8 -11 1 -23 -3 -26 -9 -4 -6 -10 -5 -15 3 -6
10 -9 11 -9 2 0 -7 -5 -13 -11 -13 -5 0 -7 6 -3 13 5 7 1 7 -10 -2 -15 -13
-19 -13 -27 0 -7 11 -9 11 -9 0 0 -11 -3 -11 -17 0 -11 10 -14 10 -9 2 4 -7 3
-13 -3 -13 -5 0 -13 5 -16 10 -5 8 -11 7 -21 -1 -11 -9 -14 -9 -14 0 0 7 -5 9
-10 6 -6 -4 -8 -11 -5 -16 3 -5 -1 -6 -9 -3 -9 3 -13 11 -9 18 4 6 -1 5 -10
-3 -13 -10 -20 -11 -31 -2 -10 8 -16 9 -21 1 -3 -5 -11 -10 -16 -10 -6 0 -8 4
-5 8 2 4 -4 8 -14 9 -11 1 -23 -3 -26 -9 -4 -6 -10 -5 -15 3 -6 10 -9 11 -9 2
0 -7 -5 -13 -11 -13 -5 0 -7 6 -3 13 5 7 1 7 -10 -2 -15 -13 -19 -13 -27 0 -7
11 -9 11 -9 0 0 -11 -3 -11 -17 0 -11 10 -14 10 -9 2 4 -7 3 -13 -3 -13 -5 0
-13 5 -16 10 -5 8 -11 7 -21 -1 -11 -9 -14 -9 -14 0 0 7 -5 9 -10 6 -6 -4 -8
-11 -5 -16 3 -5 -1 -6 -9 -3 -9 3 -13 11 -9 18 4 6 -1 5 -10 -3 -14 -11 -17
-11 -17 0 0 11 -2 11 -10 -1 -9 -13 -11 -13 -20 0 -8 12 -10 12 -10 -5 0 -15
-2 -17 -9 -6 -5 8 -16 11 -25 8 -9 -4 -16 -1 -16 6 0 9 -3 8 -9 -1 -12 -19
-15 -19 -36 -2 -11 9 -16 10 -11 3 4 -8 2 -13 -8 -13 -8 0 -17 4 -20 9 -7 10
-25 9 -43 -2 -8 -5 -13 -3 -13 4 0 8 -4 8 -15 -1 -12 -10 -15 -10 -15 1 0 8
-6 5 -15 -7 -14 -18 -15 -18 -9 0 6 16 5 17 -16 6 -15 -8 -20 -8 -16 -1 4 6 2
11 -3 11 -6 0 -11 -5 -11 -11 0 -8 -4 -8 -13 0 -10 8 -17 7 -26 -2 -9 -9 -14
-9 -21 3 -9 13 -11 13 -19 1 -8 -12 -12 -12 -25 -2 -11 9 -16 10 -16 2 0 -6
-5 -11 -11 -11 -5 0 -8 4 -5 8 3 5 -1 9 -9 9 -8 0 -15 -4 -15 -9 0 -4 -5 -8
-11 -8 -5 0 -8 4 -5 8 3 5 -1 9 -9 9 -8 0 -15 -4 -15 -9 0 -4 -5 -8 -11 -8 -5
0 -7 5 -3 11 5 8 1 8 -14 0 -27 -14 -35 -14 -26 2 5 9 4 9 -6 0 -11 -10 -16
-9 -27 5 -9 11 -12 12 -11 3 2 -7 -3 -16 -11 -19 -10 -3 -11 0 -5 9 7 12 5 12
-9 0 -13 -10 -17 -10 -17 -1 0 10 -3 10 -15 0 -12 -10 -18 -10 -30 0 -12 10
-15 10 -15 -1 0 -11 -2 -11 -10 1 -9 13 -10 13 -10 0 0 -13 -1 -13 -10 0 -9
13 -10 13 -10 0 0 -13 -1 -13 -10 0 -5 8 -10 10 -10 4 0 -12 -38 -13 -56 -1
-6 3 -14 3 -18 0 -12 -13 -46 -13 -46 0 0 8 -4 7 -10 -3 -8 -12 -10 -12 -10
-1 0 11 -3 11 -15 1 -8 -6 -20 -8 -27 -4 -15 10 -88 13 -83 4 2 -4 -9 -7 -25
-7 -16 0 -27 4 -24 9 8 12 -19 5 -28 -7 -5 -7 -10 -7 -15 0 -11 13 -36 18 -28
5 3 -5 1 -10 -4 -10 -6 0 -11 5 -11 12 0 9 -3 9 -12 0 -17 -17 -26 -15 -31 6
-4 15 -5 15 -6 -2 -1 -15 -4 -16 -16 -6 -12 10 -15 10 -15 0 0 -8 -4 -9 -12
-3 -11 8 -33 10 -40 3 -2 -1 -11 -3 -20 -5 -12 -2 -15 2 -11 13 3 13 1 13 -11
-2 -12 -15 -16 -16 -16 -5 0 12 -2 12 -10 -1 -9 -13 -10 -13 -10 0 0 13 -1 13
-10 0 -9 -13 -10 -13 -10 0 0 13 -1 13 -10 0 -9 -13 -10 -13 -10 0 0 13 -1 13
-10 0 -9 -13 -10 -13 -10 0 0 13 -1 13 -10 0 -9 -13 -10 -13 -10 0 0 12 -2 13
-9 1 -7 -11 -9 -11 -14 0 -5 12 -6 12 -6 0 -1 -11 -4 -11 -16 -1 -12 10 -18
10 -30 0 -12 -10 -15 -10 -15 1 0 11 -2 11 -10 -1 -7 -11 -10 -11 -10 -2 0 8
-5 10 -12 5 -18 -11 -58 -12 -58 -1 0 5 -8 4 -19 -1 -10 -6 -21 -7 -25 -3 -9
9 -146 10 -140 1 5 -9 -17 -6 -33 4 -6 4 -14 1 -16 -5 -4 -10 -6 -10 -6 0 -1
7 -5 10 -11 7 -18 -11 -51 -14 -45 -4 4 5 1 9 -4 9 -6 0 -11 -6 -11 -12 0 -7
-5 -5 -11 5 -5 9 -15 17 -22 17 -8 0 -8 -3 1 -9 11 -7 11 -9 -2 -14 -9 -4 -16
-2 -16 4 0 6 -6 7 -12 2 -19 -11 -37 -12 -44 -2 -4 6 -11 6 -19 -1 -10 -8 -15
-8 -20 0 -5 8 -11 8 -21 -1 -11 -9 -14 -8 -14 3 0 8 -6 15 -14 15 -9 0 -12 -6
-8 -16 5 -14 3 -14 -11 -2 -14 11 -17 11 -17 0 0 -11 -2 -11 -10 1 -9 13 -10
13 -10 0 0 -12 -2 -12 -9 -1 -6 10 -10 10 -16 1 -5 -8 -12 -7 -25 5 -17 15
-19 15 -29 -2 -6 -10 -11 -13 -11 -7 0 14 -30 14 -30 0 0 -5 -7 -1 -15 10 -14
17 -15 17 -9 1 6 -17 5 -18 -14 -6 -17 10 -23 10 -36 0 -14 -11 -16 -11 -16 5
0 15 -2 16 -9 5 -13 -20 -51 -22 -52 -2 0 12 -3 11 -9 -4 -5 -11 -9 -15 -9
-10 -1 6 -10 11 -21 12 -11 1 -18 -2 -16 -6 6 -10 -35 -8 -51 2 -6 4 -14 1
-16 -5 -4 -10 -6 -9 -6 1 -1 11 -4 11 -18 0 -14 -12 -16 -12 -8 0 6 10 4 12
-6 6 -20 -13 -49 -13 -42 -2 4 7 -1 8 -13 3 -29 -12 -84 -14 -90 -4 -3 5 -13
3 -22 -4 -13 -11 -14 -11 -7 2 8 13 7 13 -8 1 -15 -12 -17 -11 -18 5 0 18 -1
18 -9 -1 -5 -11 -9 -14 -9 -6 -1 10 -4 11 -14 2 -10 -8 -17 -7 -25 1 -9 9 -12
9 -12 -2 0 -13 -2 -13 -10 0 -9 13 -10 13 -10 0 0 -13 -1 -13 -10 0 -9 13 -10
13 -10 0 0 -13 -1 -13 -10 0 -8 12 -11 13 -19 1 -7 -11 -10 -11 -15 0 -4 10
-7 11 -12 2 -3 -7 -12 -9 -20 -6 -7 3 -11 10 -8 17 3 6 -2 2 -10 -8 -12 -15
-16 -16 -16 -5 0 12 -2 12 -10 -1 -5 -8 -10 -10 -10 -4 0 6 -13 11 -30 11 -16
0 -27 -3 -25 -7 4 -6 -36 -5 -42 0 -2 2 -6 3 -10 4 -5 1 -14 5 -20 9 -9 5 -11
3 -7 -6 5 -14 -29 -18 -42 -4 -4 3 -15 2 -25 -3 -12 -7 -20 -7 -24 0 -9 15
-27 12 -19 -2 4 -7 -3 -4 -16 7 -13 11 -20 15 -17 8 4 -6 3 -14 -3 -18 -5 -3
-10 -2 -10 4 0 5 -9 9 -20 8 -11 -1 -20 -5 -20 -10 0 -5 -7 -1 -16 8 -15 15
-18 15 -34 0 -12 -11 -20 -13 -25 -6 -4 8 -12 8 -27 0 -15 -8 -19 -8 -13 1 9
15 -36 10 -47 -5 -5 -6 -8 -5 -8 3 0 6 -7 12 -16 12 -9 0 -12 -5 -8 -12 5 -9
2 -9 -9 1 -9 7 -17 10 -17 6 0 -4 -6 -2 -14 4 -10 9 -16 9 -21 1 -5 -8 -11 -8
-21 1 -12 9 -13 9 -9 -3 6 -16 -20 -18 -43 -4 -7 4 -18 4 -25 -1 -14 -10 -35
-9 -61 2 -12 5 -21 3 -27 -6 -5 -8 -9 -9 -9 -3 0 7 -7 15 -16 18 -8 3 -12 2
-9 -3 3 -5 1 -12 -5 -16 -5 -3 -10 -1 -10 5 0 7 -6 8 -17 2 -12 -7 -25 -5 -42
6 -25 16 -26 16 -11 -3 15 -19 15 -19 -13 -2 -15 10 -26 14 -25 10 2 -4 -2 -8
-7 -8 -5 0 -9 5 -7 10 1 6 -4 2 -12 -8 -14 -18 -15 -18 -25 0 -6 10 -11 12
-11 5 0 -10 -5 -10 -22 -1 -20 11 -21 10 -11 -3 11 -12 9 -14 -10 -12 -12 1
-23 3 -24 4 -2 2 -6 3 -10 4 -5 1 -14 5 -20 9 -9 5 -11 3 -7 -6 5 -15 -22 -17
-44 -3 -7 4 -12 2 -12 -4 0 -6 -5 -8 -10 -5 -6 4 -8 12 -4 18 3 7 -2 3 -10 -7
-10 -13 -16 -15 -16 -7 0 11 -3 11 -17 0 -13 -11 -15 -11 -9 -1 10 16 -25 13
-36 -3 -5 -6 -8 -6 -8 1 0 7 -7 14 -14 17 -9 4 -13 1 -10 -6 3 -8 -4 -13 -15
-13 -16 0 -18 3 -8 15 9 12 6 12 -15 -2 -26 -16 -28 -16 -37 1 -6 9 -11 11
-11 5 0 -7 -5 -13 -11 -13 -5 0 -8 4 -5 8 3 5 -1 9 -9 9 -8 0 -12 -4 -9 -8 2
-4 0 -10 -6 -14 -5 -3 -10 -2 -10 3 0 6 -7 13 -16 16 -8 3 -12 2 -9 -3 3 -5 1
-12 -5 -16 -5 -3 -10 -1 -10 6 0 8 -5 7 -17 -2 -9 -8 -14 -9 -10 -3 4 7 0 15
-9 18 -8 3 -13 2 -10 -3 3 -5 -1 -12 -10 -15 -12 -4 -15 -2 -10 9 3 8 1 15 -3
15 -5 0 -12 -7 -15 -16 -5 -14 -9 -14 -22 -3 -13 10 -17 10 -25 -2 -6 -10 -9
-11 -9 -1 0 7 -4 11 -9 8 -5 -4 -12 0 -14 6 -4 10 -6 10 -6 0 -1 -7 -5 -10
-11 -7 -17 11 -51 14 -45 5 3 -5 1 -11 -5 -15 -5 -3 -10 -2 -10 3 0 5 -31 9
-70 9 -43 0 -70 -4 -70 -11 0 -6 -4 -5 -9 3 -8 13 -12 13 -27 0 -10 -8 -15 -9
-11 -3 4 7 -1 15 -10 18 -10 4 -14 4 -10 0z m6818 -61 c12 -16 12 -17 -2 -6
-9 7 -20 9 -24 5 -5 -4 -5 -1 -1 6 9 16 11 15 27 -5z m-46 -312 c3 -5 2 -12
-3 -15 -5 -3 -9 1 -9 9 0 17 3 19 12 6z"/>
<path d="M1830 7999 c0 -5 5 -7 10 -4 6 3 10 8 10 11 0 2 -4 4 -10 4 -5 0 -10
-5 -10 -11z"/>
<path d="M8740 7901 c0 -6 4 -13 10 -16 6 -3 7 1 4 9 -7 18 -14 21 -14 7z"/>
<path d="M1820 7636 c0 -2 7 -9 15 -16 9 -7 15 -8 15 -2 0 5 -7 12 -15 16 -8
3 -15 4 -15 2z"/>
<path d="M4457 5688 c3 -13 1 -19 -4 -13 -4 6 -14 11 -22 13 -12 3 -12 1 -1
-13 7 -9 9 -15 4 -14 -28 5 -46 -2 -40 -16 7 -18 -10 -20 -18 -2 -3 6 -3 0 -1
-15 2 -15 -2 -32 -10 -38 -8 -7 -12 -33 -11 -80 1 -39 -2 -70 -7 -70 -4 0 -4
-8 1 -17 5 -10 8 -26 7 -36 -2 -9 0 -15 5 -12 10 6 45 -25 53 -49 5 -13 14
-17 32 -14 14 3 25 2 25 -1 0 -4 18 -5 40 -3 23 2 47 -1 55 -8 13 -11 14 -10
9 6 -5 18 -5 18 10 0 9 -11 16 -15 16 -9 0 6 7 14 16 17 8 3 12 2 9 -4 -3 -6
1 -10 10 -10 10 0 13 5 9 13 -4 6 2 4 13 -6 16 -14 23 -15 29 -6 5 8 3 10 -6
4 -9 -6 -11 -4 -6 4 6 9 13 8 27 -5 19 -17 20 -17 13 2 -7 18 -7 18 13 1 14
-12 23 -15 28 -8 9 15 48 14 64 -1 9 -8 11 -8 8 -2 -4 7 0 15 9 18 8 3 13 2
10 -3 -3 -5 1 -12 10 -15 8 -3 13 -2 10 3 -3 5 3 11 14 14 11 3 23 0 27 -5 4
-7 1 -8 -7 -3 -8 5 -11 4 -6 -3 8 -13 36 -5 36 10 0 7 4 7 13 1 19 -15 49 -24
42 -13 -3 6 -3 10 2 11 4 0 18 2 30 3 12 1 20 -1 18 -5 -3 -4 2 -9 10 -12 10
-4 12 -1 9 11 -5 14 -3 13 10 -2 9 -11 16 -15 16 -9 0 6 7 14 16 17 8 3 12 2
9 -4 -3 -6 -2 -10 4 -10 5 0 13 5 16 10 5 8 11 8 20 0 10 -8 15 -8 20 0 4 7
11 8 18 2 7 -5 24 -7 40 -5 15 2 27 -1 27 -7 0 -6 5 -8 10 -5 6 4 7 11 4 17
-4 5 5 3 19 -7 16 -10 27 -12 32 -6 7 12 55 11 72 -1 7 -6 14 -4 19 3 5 8 3 9
-6 4 -8 -5 -11 -4 -6 3 4 6 13 9 21 6 8 -4 12 -11 8 -18 -4 -6 1 -5 10 3 13
10 20 11 31 2 11 -9 16 -9 22 0 5 8 3 9 -6 4 -8 -5 -11 -4 -6 3 9 15 38 3 29
-12 -3 -6 -1 -6 8 2 7 6 20 12 29 12 13 0 13 -1 0 -10 -9 -6 -10 -10 -3 -10 6
0 14 4 18 10 3 5 13 6 22 3 11 -4 14 -3 9 5 -5 8 -2 10 8 6 9 -3 14 -9 11 -14
-4 -7 22 -6 55 1 8 2 14 -2 12 -9 -1 -8 2 -11 8 -7 6 3 8 11 5 16 -4 5 1 9 9
9 9 0 16 -5 16 -12 0 -6 7 -3 15 8 13 16 14 16 9 1 -5 -13 -2 -16 10 -11 9 3
13 11 9 18 -4 6 1 5 10 -3 14 -11 17 -11 17 0 1 9 4 8 11 -4 8 -14 14 -16 25
-6 7 6 21 9 29 5 8 -3 15 0 15 7 0 7 5 4 11 -6 8 -14 14 -16 25 -6 7 6 21 9
29 5 8 -3 15 0 15 7 0 7 5 4 11 -6 8 -14 14 -16 24 -7 8 7 24 9 36 5 16 -6 20
-4 13 6 -6 11 -3 10 10 -1 21 -16 49 -23 40 -9 -3 5 -11 6 -17 3 -7 -4 -9 -3
-4 1 4 5 18 9 31 10 17 0 22 -4 18 -15 -5 -13 -3 -13 11 -1 12 9 17 10 17 2 0
-7 5 -9 10 -6 6 4 7 11 4 17 -4 5 4 4 17 -3 13 -7 24 -12 24 -12 0 0 11 6 25
13 23 12 24 12 12 -3 -12 -14 -11 -16 7 -14 11 0 17 5 15 9 -8 12 10 10 23 -3
8 -8 13 -7 18 2 6 8 4 10 -5 4 -8 -5 -11 -4 -6 3 4 6 13 9 21 6 8 -4 12 -11 9
-16 -4 -6 6 -2 22 8 26 17 28 17 15 1 -8 -10 -9 -17 -3 -17 6 0 14 5 17 10 4
6 11 8 16 5 5 -4 9 -1 9 5 0 7 6 5 15 -4 9 -8 25 -13 38 -10 54 12 77 12 77 2
0 -7 7 -3 15 8 12 15 14 16 9 2 -5 -14 -1 -16 18 -12 12 3 32 7 43 8 11 1 26
5 32 9 8 5 11 3 8 -5 -4 -9 3 -14 17 -15 18 -2 20 0 8 7 -11 7 -6 10 18 10 24
0 31 -3 26 -12 -5 -9 -2 -9 9 1 9 7 17 10 17 5 0 -5 5 -2 10 6 8 12 10 12 10
-5 0 -15 2 -17 9 -6 7 11 9 11 13 0 4 -12 8 -12 20 -1 13 10 17 10 21 0 4 -10
6 -10 6 0 1 6 9 12 19 12 14 0 15 -2 2 -10 -12 -8 -11 -10 5 -7 11 1 26 6 33
10 7 5 12 4 12 -2 0 -6 5 -11 11 -11 5 0 7 5 4 10 -3 6 1 10 10 10 10 0 13 -5
9 -12 -5 -9 -2 -9 9 1 14 11 17 11 17 0 0 -11 2 -11 10 1 8 12 10 12 10 1 0
-11 3 -11 15 -1 8 7 15 8 15 3 0 -11 29 -11 48 1 6 4 12 3 12 -1 0 -10 81 -10
98 1 7 4 12 2 12 -5 0 -10 3 -10 12 -1 16 16 31 15 22 0 -5 -9 -2 -9 9 1 11 9
17 10 17 2 0 -6 5 -11 11 -11 5 0 8 4 5 9 -3 5 1 11 9 15 8 3 14 2 14 -2 -3
-19 2 -23 16 -12 8 7 15 8 15 3 0 -11 50 -11 68 0 6 5 12 4 12 0 0 -10 81 -10
98 1 7 4 12 2 12 -5 0 -10 3 -10 12 -1 16 16 31 15 22 0 -6 -10 -4 -10 8 0 13
10 17 10 21 0 4 -10 6 -10 6 0 1 6 6 12 12 12 5 0 8 -4 5 -9 -7 -11 13 -9 32
2 7 5 12 3 12 -3 0 -8 6 -8 20 0 15 8 20 8 20 -1 0 -8 4 -8 15 1 10 9 15 9 15
1 0 -6 5 -11 11 -11 5 0 7 5 4 10 -3 6 1 10 10 10 10 0 13 -5 9 -12 -5 -9 -2
-9 9 1 14 11 17 11 17 0 0 -11 2 -11 10 1 8 12 10 12 10 1 0 -11 3 -11 15 -1
8 7 15 8 15 3 0 -5 9 -9 19 -9 11 0 17 4 15 8 -3 4 0 8 5 8 6 0 11 -5 11 -11
0 -8 5 -8 15 1 8 7 15 8 15 3 0 -5 9 -9 19 -9 11 0 17 4 15 8 -3 4 0 8 5 8 6
0 11 -5 11 -12 0 -9 3 -9 11 -1 8 8 19 9 37 2 22 -8 23 -8 12 6 -20 24 -3 18
20 -7 18 -19 20 -20 14 -4 -6 16 -4 17 13 8 15 -8 23 -8 33 1 10 9 14 9 17 0
3 -7 9 -13 14 -13 6 0 8 4 5 8 -3 5 1 9 9 9 8 0 15 -4 15 -9 0 -4 5 -8 11 -8
5 0 7 5 3 11 -4 7 1 7 16 -1 15 -8 20 -8 16 -1 -4 6 -2 11 3 11 6 0 11 -5 11
-11 0 -8 5 -8 15 1 11 9 15 9 15 1 0 -7 5 -9 11 -5 18 11 99 13 99 3 0 -5 5
-9 11 -9 5 0 8 4 5 9 -7 10 46 7 64 -4 9 -5 11 -4 6 3 -4 7 -2 12 3 12 6 0 11
-5 11 -11 0 -8 5 -8 15 1 8 7 15 8 15 3 0 -5 7 -10 15 -10 8 0 12 3 10 6 -2 4
16 6 40 7 24 0 42 -3 40 -6 -2 -4 2 -7 10 -7 8 0 12 4 9 9 -3 4 4 8 16 8 14 0
19 4 14 13 -5 7 -2 7 10 -2 15 -12 17 -12 14 0 -2 8 3 13 10 12 6 -2 12 2 12
8 0 5 4 8 9 5 4 -3 7 6 5 20 -2 21 0 23 12 13 12 -10 13 -9 8 6 -6 14 -4 16 7
10 12 -7 12 -6 1 7 -10 13 -10 19 3 32 12 12 13 16 3 17 -7 0 -4 4 7 9 16 7
17 9 3 9 -13 1 -15 6 -9 29 10 33 4 55 -12 45 -8 -4 -7 -1 1 9 10 13 10 17 0
22 -10 5 -10 7 0 12 6 3 12 10 12 16 0 6 -10 3 -21 -8 l-22 -19 13 25 c13 24
12 24 -5 10 -17 -14 -17 -14 -7 7 15 27 -2 41 -18 16 -8 -15 -9 -13 -5 12 3
17 2 24 -1 17 -5 -10 -12 -6 -25 15 -10 15 -19 22 -19 16 0 -7 -5 -13 -11 -13
-5 0 -7 5 -3 12 4 7 3 8 -5 4 -6 -4 -19 -2 -27 5 -12 10 -13 9 -9 -4 5 -13 1
-14 -27 -8 -18 4 -48 4 -66 0 -19 -4 -35 -2 -39 4 -4 6 -1 7 7 2 9 -6 11 -4 5
5 -6 10 -12 7 -26 -11 l-18 -24 4 25 c4 23 3 24 -9 7 -14 -18 -15 -18 -25 0
-10 17 -10 17 -11 0 0 -14 -4 -16 -19 -7 -26 13 -34 13 -25 -2 5 -9 2 -9 -9 1
-15 12 -17 11 -17 -5 -1 -18 -1 -18 -11 -1 -5 9 -15 17 -20 17 -6 0 -7 -6 -3
-12 5 -9 2 -9 -9 1 -14 11 -17 11 -18 0 0 -8 -4 -5 -9 6 -8 19 -9 19 -9 1 -1
-14 -4 -16 -14 -7 -8 6 -17 8 -21 4 -4 -4 -11 -1 -16 7 -8 12 -10 11 -10 -4 0
-16 -3 -17 -12 -8 -15 15 -32 16 -22 1 4 -8 1 -8 -12 -2 -11 5 -56 8 -101 7
-57 -2 -83 1 -83 8 0 7 -7 3 -15 -8 -8 -11 -15 -14 -15 -6 0 6 -5 12 -11 12
-5 0 -8 -4 -5 -8 3 -5 -1 -9 -9 -9 -8 0 -11 5 -8 10 3 5 0 7 -8 5 -8 -3 -13
-10 -12 -17 2 -6 -13 -1 -33 10 -25 13 -35 16 -31 7 3 -8 -2 -14 -13 -14 -10
0 -17 3 -14 7 2 4 -3 9 -11 12 -9 4 -12 1 -9 -7 3 -8 0 -17 -6 -21 -6 -3 -9
-1 -8 6 2 6 -3 14 -11 17 -9 3 -11 0 -6 -8 6 -9 4 -11 -6 -5 -7 5 -26 8 -42 7
-16 -1 -26 1 -23 6 3 5 -1 9 -8 9 -9 0 -12 -7 -9 -16 5 -13 3 -14 -8 -3 -7 6
-17 12 -22 12 -4 0 -5 -6 -1 -12 4 -7 -3 -4 -15 6 -22 20 -22 20 -15 0 6 -16
5 -17 -7 -6 -16 15 -33 16 -23 1 5 -8 1 -8 -13 0 -15 7 -23 7 -32 -2 -10 -9
-11 -8 -5 8 7 17 5 18 -7 8 -9 -7 -28 -10 -43 -7 -21 3 -26 1 -20 -8 4 -7 -3
-4 -15 6 -22 20 -22 20 -15 0 7 -17 6 -18 -10 -5 -15 13 -19 13 -27 0 -6 -10
-9 -10 -9 -1 0 6 -5 12 -11 12 -5 0 -7 -6 -3 -12 6 -10 4 -10 -7 0 -16 15 -33
16 -23 1 4 -8 1 -8 -12 -1 -11 5 -25 7 -33 4 -10 -3 -11 0 -5 9 6 11 5 12 -7
2 -8 -7 -28 -10 -43 -7 -21 3 -26 1 -20 -8 4 -7 -2 -5 -13 5 -16 14 -23 15
-29 6 -5 -8 -3 -10 7 -4 8 5 11 4 6 0 -9 -11 -48 -14 -42 -4 11 16 -29 18 -48
2 -11 -10 -17 -12 -13 -5 4 7 1 12 -9 12 -10 0 -14 -5 -9 -12 6 -10 4 -10 -7
0 -7 6 -17 12 -22 12 -4 0 -5 -6 -1 -12 6 -10 4 -10 -7 0 -7 6 -17 12 -22 12
-4 0 -5 -6 -1 -12 6 -10 4 -10 -7 0 -7 6 -17 12 -22 12 -4 0 -5 -6 -1 -12 6
-10 4 -10 -7 0 -7 6 -17 12 -22 12 -4 0 -5 -6 -1 -12 5 -8 0 -7 -11 2 -14 12
-19 12 -23 2 -3 -10 -7 -9 -16 3 -12 17 -46 11 -46 -8 0 -6 -7 -2 -15 9 -13
18 -14 18 -8 -6 5 -24 5 -25 -11 -5 -12 16 -17 17 -24 7 -8 -11 -10 -11 -15 2
-8 21 -22 20 -45 -4 -17 -18 -20 -19 -32 -5 -9 11 -16 12 -25 5 -10 -8 -15 -8
-21 1 -5 8 -3 9 6 4 9 -6 11 -4 5 4 -5 9 -10 10 -18 2 -14 -14 -54 -14 -62 -1
-8 13 -36 0 -28 -14 3 -6 -4 -2 -16 8 -22 20 -22 20 -16 0 6 -17 5 -18 -7 -2
-13 15 -15 15 -26 0 -7 -9 -10 -12 -7 -5 3 6 1 14 -4 17 -5 3 -11 0 -14 -8 -4
-9 -14 -12 -26 -9 -12 3 -18 9 -15 14 3 5 -2 6 -10 3 -9 -3 -13 -11 -10 -18 3
-6 -1 -3 -8 6 -13 15 -15 15 -24 0 -9 -13 -12 -13 -19 -2 -6 9 -4 11 5 5 9 -5
11 -4 6 4 -5 8 -12 9 -20 2 -13 -11 -34 -10 -53 2 -6 4 -15 2 -19 -4 -5 -8 -3
-9 6 -4 8 5 11 4 7 -2 -4 -6 -18 -8 -33 -5 -19 3 -22 7 -12 13 9 6 9 9 1 9 -6
0 -14 -4 -18 -10 -3 -5 -13 -6 -22 -3 -12 5 -14 3 -8 -8 5 -8 0 -6 -12 4 -16
14 -23 15 -29 6 -5 -8 -3 -10 6 -4 9 5 11 4 6 -4 -6 -9 -11 -9 -22 0 -8 6 -14
9 -14 5 0 -3 -12 -1 -26 5 -23 8 -25 8 -15 -5 10 -12 9 -14 -8 -9 -12 3 -18 9
-15 14 3 5 -2 6 -10 3 -9 -3 -13 -11 -9 -17 4 -6 1 -7 -8 -1 -8 5 -23 7 -34 6
-17 -2 -17 -1 -5 7 9 7 10 11 3 11 -6 0 -15 -4 -18 -10 -6 -10 -40 -8 -51 3
-4 4 -12 7 -18 7 -6 0 -4 -4 4 -10 10 -6 6 -9 -18 -8 -19 1 -29 5 -25 12 4 7
1 6 -7 -1 -7 -6 -19 -9 -28 -6 -10 4 -13 2 -8 -5 5 -8 2 -10 -8 -6 -9 3 -16
10 -16 15 0 5 -5 9 -11 9 -5 0 -8 -4 -5 -9 3 -5 -5 -8 -19 -8 -16 0 -22 4 -18
11 5 7 2 7 -8 -1 -15 -12 -43 -12 -55 0 -4 4 -12 7 -18 7 -6 0 -4 -4 4 -10 10
-6 6 -9 -18 -8 -19 1 -29 5 -25 12 4 7 1 6 -7 -1 -7 -6 -19 -9 -28 -6 -10 4
-13 2 -8 -5 10 -17 0 -15 -18 4 -9 8 -16 11 -16 5 0 -6 -5 -11 -11 -11 -5 0
-7 6 -3 13 6 10 4 10 -7 0 -7 -7 -17 -13 -22 -13 -4 0 -5 6 -1 13 5 9 4 9 -6
0 -7 -6 -19 -9 -28 -6 -10 4 -13 2 -8 -5 5 -8 2 -10 -8 -6 -9 3 -13 11 -9 18
4 6 -1 5 -10 -3 -14 -11 -17 -11 -17 0 0 8 -6 6 -16 -7 -8 -10 -13 -14 -10 -8
3 7 -3 14 -14 17 -11 3 -20 1 -20 -3 0 -10 -20 -8 -39 4 -10 6 -12 5 -7 -2 4
-7 1 -12 -9 -12 -10 0 -14 5 -9 13 6 10 4 10 -7 0 -7 -7 -17 -13 -22 -13 -4 0
-5 6 -1 13 5 8 2 8 -9 -2 -9 -7 -17 -10 -17 -6 0 4 -7 2 -15 -5 -13 -11 -14
-10 -9 5 6 14 4 16 -12 8 -10 -5 -26 -9 -34 -8 -8 1 -24 -3 -35 -8 -17 -9 -18
-8 -7 5 11 14 8 15 -20 12 -18 -1 -33 -3 -33 -4 0 -1 -12 -3 -26 -4 -14 -2
-32 -7 -40 -11 -12 -7 -12 -6 -1 7 11 14 11 16 -2 14 -9 -1 -19 -5 -22 -9 -12
-12 -26 -8 -18 6 6 9 4 9 -8 -1 -12 -9 -18 -10 -23 -2 -5 8 -11 7 -22 -2 -9
-7 -19 -11 -22 -9 -22 14 -51 19 -57 10 -4 -7 -10 -7 -18 0 -7 6 -16 8 -20 4
-11 -12 -56 -11 -56 1 0 6 -5 4 -10 -4 -5 -8 -10 -11 -10 -7 0 4 -10 2 -22 -4
-21 -11 -22 -11 -10 4 11 13 11 15 -1 13 -8 -1 -22 -8 -31 -15 -14 -12 -16
-12 -10 3 5 14 3 15 -20 6 -14 -5 -26 -7 -26 -4 0 2 -10 0 -21 -7 -15 -8 -19
-8 -15 0 4 6 3 11 -3 11 -5 0 -12 -6 -14 -12 -3 -8 -6 -6 -6 5 -1 9 -5 17 -10
17 -5 0 -7 -10 -4 -22z m2233 2 c0 -5 -2 -10 -4 -10 -3 0 -8 5 -11 10 -3 6 -1
10 4 10 6 0 11 -4 11 -10z m120 0 c0 -5 -2 -10 -4 -10 -3 0 -8 5 -11 10 -3 6
-1 10 4 10 6 0 11 -4 11 -10z m240 6 c0 -3 -4 -8 -10 -11 -5 -3 -10 -1 -10 4
0 6 5 11 10 11 6 0 10 -2 10 -4z m985 -16 c3 -6 -1 -7 -9 -4 -18 7 -21 14 -7
14 6 0 13 -4 16 -10z m584 -23 c0 -9 -2 -8 -6 1 -2 6 -10 9 -15 6 -7 -4 -8 -2
-4 5 9 13 26 5 25 -12z m-4172 -333 c-3 -3 -12 -4 -19 -1 -8 3 -5 6 6 6 11 1
17 -2 13 -5z m1203 -10 c0 -8 -19 -13 -24 -6 -3 5 1 9 9 9 8 0 15 -2 15 -3z
m795 -3 c-9 -8 -36 -10 -30 -2 2 4 11 8 20 8 8 0 13 -3 10 -6z"/>
<path d="M6626 5697 c3 -10 9 -15 12 -12 3 3 0 11 -7 18 -10 9 -11 8 -5 -6z"/>
<path d="M4350 5599 c0 -5 5 -7 10 -4 6 3 10 8 10 11 0 2 -4 4 -10 4 -5 0 -10
-5 -10 -11z"/>
<path d="M4334 5520 c0 -13 4 -16 10 -10 7 7 7 13 0 20 -6 6 -10 3 -10 -10z"/>
<path d="M1855 3380 c6 -10 1 -12 -18 -8 -23 4 -25 3 -16 -13 12 -23 6 -24
-16 -3 -15 16 -16 16 -13 -2 2 -12 -3 -19 -14 -19 -9 0 -20 -4 -25 -9 -4 -5
-3 -7 2 -3 6 3 17 2 25 -4 12 -7 11 -9 -5 -10 -11 -1 -23 -1 -26 -1 -3 1 -5
-10 -3 -23 1 -14 -3 -25 -9 -25 -8 0 -7 -3 2 -9 9 -6 10 -10 2 -16 -9 -5 -9
-11 1 -23 10 -12 10 -14 1 -8 -8 4 -13 1 -13 -9 0 -10 4 -13 13 -8 6 4 4 -5
-6 -20 -10 -15 -14 -27 -10 -26 19 3 22 -3 13 -27 -7 -16 -7 -23 0 -19 6 3 10
1 10 -5 0 -6 3 -9 8 -7 4 3 15 -6 25 -19 17 -23 17 -23 0 -19 -10 3 -8 0 5 -6
12 -7 22 -16 22 -21 0 -4 7 -8 16 -8 9 0 12 -5 8 -12 -6 -10 -4 -10 8 0 12 10
17 10 20 1 4 -13 48 -21 48 -9 0 8 49 5 57 -4 3 -3 14 -1 24 5 14 7 19 6 19
-3 0 -9 3 -9 10 2 7 11 10 11 10 2 0 -9 5 -10 18 -3 13 7 23 6 30 -1 7 -7 12
-8 12 -2 0 5 14 9 30 9 17 0 30 -4 30 -8 0 -5 5 -5 11 -1 15 9 93 9 107 0 7
-4 12 -2 12 4 0 7 6 8 19 0 14 -7 22 -7 26 0 5 8 11 7 21 -1 11 -9 14 -9 14 0
0 8 6 9 18 3 9 -5 25 -7 35 -3 10 4 45 4 78 1 38 -4 59 -2 59 5 0 5 5 3 10 -5
5 -8 10 -10 10 -4 0 7 17 8 50 4 33 -4 50 -3 50 4 0 6 5 4 10 -4 7 -11 10 -11
10 -2 0 10 5 10 20 2 15 -8 20 -8 20 2 0 9 3 9 10 -2 7 -11 10 -11 10 -2 0 10
5 10 20 2 15 -8 20 -8 20 2 0 9 3 9 10 -2 9 -13 10 -13 10 0 0 13 1 13 10 0 7
-11 10 -11 10 -2 0 7 5 10 10 7 17 -11 100 -11 100 0 0 7 3 7 8 0 4 -5 31 -10
60 -10 28 0 52 5 52 10 0 7 3 7 8 0 4 -5 30 -10 57 -10 28 0 53 5 57 10 5 7 8
7 8 0 0 -5 13 -10 30 -11 17 -1 27 3 23 9 -4 6 -1 7 8 1 21 -13 39 -14 39 -1
0 8 3 7 9 -2 6 -9 11 -10 15 -3 4 6 14 8 22 5 28 -10 324 -9 324 2 0 7 3 7 8
0 10 -14 62 -16 62 -2 0 7 4 6 10 -3 6 -10 10 -11 10 -3 0 9 7 10 26 3 33 -13
37 -13 28 3 -5 8 -2 8 9 -2 11 -8 17 -9 17 -3 0 6 6 9 13 7 18 -8 186 -11 181
-4 -1 3 3 6 11 6 8 0 13 -3 11 -6 -2 -3 72 -6 164 -6 98 0 166 4 163 9 -4 5 0
6 7 1 21 -13 91 -14 83 -1 -4 6 6 3 21 -8 16 -10 25 -13 21 -6 -6 9 4 11 39 7
32 -4 44 -3 40 5 -5 7 -1 8 11 1 10 -6 26 -8 36 -6 11 3 25 0 33 -6 11 -9 16
-9 22 0 5 8 3 9 -6 4 -9 -5 -11 -4 -6 3 5 8 13 9 25 2 10 -5 21 -7 24 -3 4 3
13 0 21 -6 11 -9 16 -9 22 0 5 8 3 9 -6 4 -9 -5 -11 -4 -6 4 4 6 12 9 17 5 5
-3 21 -7 35 -10 18 -3 23 -1 18 7 -4 8 -3 9 5 5 19 -12 121 -14 114 -3 -4 6
-1 7 8 2 21 -13 120 -15 112 -2 -4 6 -1 7 7 2 19 -12 120 -13 120 -2 0 6 10 2
22 -9 12 -10 18 -13 14 -6 -6 10 6 12 53 8 34 -2 64 1 67 6 3 5 15 1 27 -9 11
-10 17 -12 13 -5 -6 11 0 13 25 11 19 -2 40 -8 48 -13 11 -9 13 -8 7 2 -6 10
-3 13 10 11 11 -2 25 0 33 5 10 6 12 5 7 -2 -5 -8 1 -12 14 -12 13 0 19 4 14
11 -4 8 -1 8 12 1 23 -12 34 -13 56 -1 14 8 16 6 11 -7 -5 -13 -3 -15 8 -8 20
13 79 13 79 0 0 -6 4 -5 9 3 5 7 15 11 22 9 8 -3 22 -1 31 4 14 7 16 5 11 -8
-5 -13 -3 -15 8 -8 22 13 42 14 58 1 12 -9 13 -9 7 1 -5 8 0 12 18 12 13 0 27
-6 29 -12 4 -10 6 -10 6 0 1 15 37 16 46 2 5 -8 11 -7 20 0 8 7 19 9 24 5 6
-3 20 -1 32 6 12 6 19 7 15 1 -3 -6 11 -9 37 -7 23 1 45 -3 49 -9 5 -8 8 -7 8
2 0 6 7 12 16 12 9 0 12 -5 8 -12 -5 -7 -3 -8 7 -2 20 12 119 12 119 -1 0 -5
4 -4 9 4 8 13 12 13 27 0 10 -8 15 -9 11 -3 -4 7 18 11 73 10 44 0 74 -4 67
-8 -9 -6 -9 -8 0 -8 6 0 14 4 17 8 3 5 18 8 33 7 15 -1 37 3 48 8 17 9 18 8 8
-5 -10 -12 -10 -15 2 -15 8 0 15 3 15 7 0 9 57 3 73 -7 7 -4 5 2 -3 12 -14 17
-13 18 5 8 11 -5 27 -9 35 -8 8 1 20 -3 27 -7 6 -5 14 -5 17 0 6 10 48 8 67
-4 9 -5 10 -2 6 10 -5 13 -3 15 11 8 9 -5 28 -8 42 -7 14 1 28 -3 32 -9 6 -8
8 -8 8 0 0 12 41 11 61 -2 9 -5 10 -2 6 10 -5 13 -3 15 11 7 9 -5 29 -7 45 -5
18 2 25 -1 21 -8 -5 -7 -2 -8 7 -3 20 13 160 14 152 2 -4 -6 -1 -7 8 -2 20 13
52 14 67 3 7 -6 12 -7 12 -1 0 5 18 9 39 9 23 0 37 -4 34 -10 -3 -5 -1 -6 6
-2 21 14 63 18 56 5 -5 -8 -1 -8 14 1 17 8 26 8 36 0 8 -7 15 -7 19 -1 7 10
25 9 44 -2 6 -5 12 -4 12 0 0 5 9 9 20 10 13 1 18 -2 14 -9 -5 -7 -2 -8 7 -2
19 11 51 16 45 6 -2 -4 4 -8 15 -8 10 0 19 3 19 6 0 3 9 6 20 7 12 1 18 -3 14
-9 -4 -5 4 -4 17 3 13 7 26 11 29 9 23 -13 50 -18 55 -10 4 7 13 7 24 0 10 -5
21 -6 25 -3 10 10 36 12 36 4 0 -4 7 -8 15 -8 8 0 12 4 9 9 -3 4 -1 8 5 8 5 0
13 -4 16 -10 4 -6 13 -5 25 2 15 10 22 10 31 1 9 -9 18 -9 32 -1 14 7 22 7 27
-2 6 -9 9 -9 13 1 4 10 6 10 6 2 1 -9 8 -10 28 -2 20 7 29 7 31 -1 3 -7 9 -7
20 2 12 10 16 10 19 1 3 -9 10 -10 21 -4 9 5 26 5 37 1 11 -4 29 -3 40 3 13 7
20 7 23 -2 2 -6 8 -11 13 -11 6 0 7 5 3 11 -4 7 1 7 16 -1 13 -7 20 -8 16 -2
-4 6 2 10 14 9 11 -1 20 -4 20 -7 0 -4 7 -7 15 -7 8 0 12 4 9 9 -3 4 -1 8 5 8
5 0 13 -5 16 -10 4 -6 12 -7 18 -3 18 11 36 12 43 2 3 -5 12 -5 23 1 12 6 22
5 28 -1 8 -8 13 -7 17 0 4 6 12 11 17 11 6 0 7 -5 3 -11 -4 -8 -1 -8 12 -1 11
5 25 7 33 4 9 -3 11 0 6 8 -5 9 -4 11 3 6 16 -10 54 12 46 26 -5 7 -2 9 8 6 8
-4 21 -2 29 3 10 6 10 9 2 9 -7 0 -13 5 -13 10 0 6 7 10 15 10 13 0 14 4 4 21
-8 15 -8 19 0 15 17 -11 26 24 13 56 -5 15 -6 26 -1 22 5 -3 9 -1 9 5 0 5 -6
12 -12 14 -10 4 -10 6 0 6 6 1 12 8 12 16 0 8 -6 15 -12 15 -10 0 -10 2 0 9
11 6 10 10 -3 15 -10 3 -15 12 -12 20 3 8 1 17 -6 19 -9 3 -8 8 2 21 8 9 10
16 5 15 -5 -1 -13 0 -19 1 -5 1 -19 3 -30 4 -12 0 -19 7 -17 17 1 9 -4 16 -13
16 -8 0 -12 -4 -9 -9 3 -4 1 -8 -4 -8 -6 0 -12 6 -15 13 -5 13 -55 15 -74 4
-6 -4 -14 -1 -16 5 -4 10 -6 10 -6 0 -1 -7 -6 -10 -12 -6 -18 11 -149 10 -153
-1 -3 -5 -5 -4 -5 3 -1 6 -6 12 -12 12 -5 0 -7 -6 -3 -12 6 -10 5 -10 -7 -1
-12 10 -18 10 -27 1 -9 -9 -12 -9 -12 0 0 7 -5 12 -11 12 -5 0 -7 -6 -3 -12 5
-9 2 -9 -9 1 -11 8 -17 9 -17 2 0 -7 -8 -8 -25 -1 -18 7 -25 6 -25 -3 0 -7 -3
-8 -8 -2 -4 6 -27 10 -52 10 -25 0 -48 -4 -52 -10 -5 -6 -8 -5 -8 4 0 10 -3
11 -14 2 -11 -9 -15 -9 -19 1 -4 10 -8 10 -16 -2 -6 -8 -11 -10 -11 -4 0 7
-11 9 -25 6 -14 -2 -32 1 -40 8 -13 11 -14 10 -8 -6 6 -17 5 -17 -10 -5 -14
11 -17 11 -17 0 0 -11 -3 -11 -11 1 -8 11 -12 12 -16 2 -2 -6 -9 -9 -15 -6
-17 11 -147 11 -141 0 4 -5 1 -6 -7 -1 -17 10 -93 10 -110 0 -7 -5 -11 -4 -7
1 3 5 -15 9 -39 10 -24 0 -44 -4 -44 -10 0 -5 -7 -1 -16 10 -8 10 -13 14 -10
7 4 -6 2 -14 -4 -18 -5 -3 -10 -3 -10 2 0 4 -11 8 -25 8 -14 0 -25 -4 -25 -10
0 -7 -3 -7 -8 0 -10 13 -192 13 -184 0 3 -5 -1 -4 -10 3 -11 9 -18 10 -23 2
-3 -6 -12 -7 -18 -3 -20 12 -47 14 -47 2 0 -5 -5 -7 -12 -3 -18 12 -78 11 -78
0 0 -7 -3 -8 -8 -1 -9 13 -125 13 -134 0 -5 -6 -8 -6 -8 2 0 7 -7 10 -15 7 -9
-4 -15 0 -15 7 -1 10 -4 8 -11 -3 -8 -14 -15 -15 -35 -8 -32 13 -37 12 -29 0
4 -6 -2 -7 -17 -1 -15 6 -31 5 -42 -1 -12 -7 -17 -7 -13 -1 4 7 -14 9 -51 8
-35 -2 -60 1 -64 8 -6 9 -8 8 -8 -1 0 -9 -11 -11 -41 -7 -24 4 -39 2 -35 -3 3
-5 -6 -7 -19 -4 -15 2 -22 9 -18 16 4 6 -1 5 -11 -3 -15 -13 -19 -13 -27 0 -5
8 -9 9 -9 2 0 -13 -146 -13 -166 0 -6 3 -14 3 -18 -1 -10 -9 -296 -10 -302 0
-3 5 -11 5 -17 1 -19 -13 -98 -13 -90 0 4 6 1 7 -8 1 -20 -12 -212 -12 -221 0
-5 7 -8 7 -8 -1 0 -7 -7 -13 -16 -13 -9 0 -12 5 -8 12 5 7 3 8 -7 2 -20 -13
-82 -13 -98 0 -11 8 -13 8 -7 -1 4 -8 2 -13 -6 -13 -8 0 -20 6 -27 13 -11 10
-13 10 -7 0 4 -8 2 -13 -6 -13 -8 0 -20 6 -27 13 -9 8 -12 8 -7 0 4 -8 -8 -10
-45 -7 -38 3 -49 1 -43 -8 6 -10 4 -10 -7 -2 -8 6 -40 10 -71 9 -31 -1 -55 1
-53 5 2 4 -2 7 -10 7 -8 0 -12 -4 -10 -7 7 -11 -89 -6 -97 5 -5 6 -8 6 -8 -1
0 -14 -82 -14 -92 1 -5 7 -8 7 -8 -1 0 -11 -49 -12 -67 -1 -6 4 -15 3 -18 -3
-5 -8 -12 -7 -23 2 -9 7 -13 8 -9 2 9 -15 -65 -14 -75 1 -5 6 -8 6 -8 -2 0
-12 -87 -12 -108 0 -6 4 -14 3 -17 -3 -5 -8 -12 -7 -23 2 -10 8 -13 9 -9 1 8
-13 -30 -12 -52 2 -9 5 -12 4 -8 -1 8 -13 -126 -12 -135 1 -5 7 -8 6 -8 0 0
-6 -12 -12 -27 -13 -23 -1 -25 0 -13 9 12 9 11 9 -5 4 -32 -12 -105 -12 -105
-1 0 7 -3 8 -8 1 -4 -5 -18 -11 -32 -13 -21 -2 -22 -1 -10 8 12 10 11 11 -5 5
-36 -13 -65 -14 -65 -2 0 8 -3 8 -8 2 -10 -14 -45 -16 -54 -2 -5 8 -8 8 -8 1
0 -12 -28 -12 -47 -1 -6 4 -14 4 -16 0 -4 -7 -92 -9 -92 -3 0 1 -10 3 -22 4
-12 1 -20 0 -18 -4 2 -4 -9 -7 -25 -6 -17 1 -30 5 -30 10 0 5 -7 3 -16 -5 -13
-10 -17 -10 -25 2 -5 8 -9 9 -9 3 0 -6 -7 -11 -15 -11 -8 0 -15 4 -15 9 0 5
-6 6 -12 2 -18 -11 -48 -12 -48 -2 0 5 -10 4 -21 -3 -16 -8 -20 -8 -14 1 6 9
2 9 -14 1 -15 -8 -21 -9 -21 -1 0 6 -5 8 -12 4 -20 -12 -58 -14 -58 -2 0 6 -6
5 -16 -3 -9 -7 -18 -9 -22 -3 -9 11 -42 11 -61 -1 -10 -5 -16 -4 -19 4 -3 9
-7 9 -17 1 -10 -8 -15 -8 -20 0 -5 8 -11 7 -22 -1 -9 -8 -17 -9 -21 -3 -9 11
-42 11 -61 0 -7 -5 -16 -5 -20 0 -8 11 -52 13 -45 2 3 -4 0 -8 -5 -8 -6 0 -11
5 -11 10 0 7 -6 7 -20 0 -15 -8 -20 -8 -20 1 0 8 -4 8 -13 1 -8 -7 -18 -7 -27
-2 -9 5 -19 5 -26 -1 -8 -7 -14 -6 -19 1 -3 6 -11 8 -16 4 -19 -11 -59 -11
-59 0 0 6 -5 4 -10 -4 -9 -13 -10 -13 -10 0 0 13 -1 13 -10 0 -7 -11 -10 -11
-10 -2 0 10 -5 10 -20 2 -15 -8 -20 -8 -20 2 0 10 -2 10 -9 -1 -6 -9 -11 -10
-15 -2 -4 6 -13 8 -19 4 -18 -11 -47 -11 -47 0 0 5 -7 4 -15 -3 -12 -10 -15
-10 -15 1 0 11 -2 11 -10 -1 -5 -8 -10 -10 -10 -4 0 12 -29 12 -48 0 -6 -4
-12 -3 -12 3 0 7 -8 7 -27 0 -19 -7 -28 -6 -34 2 -4 7 -12 8 -20 3 -20 -12
-39 -14 -39 -3 0 6 -8 5 -20 -1 -11 -6 -20 -7 -20 -2 0 4 -9 8 -20 8 -11 0
-20 -4 -20 -7 0 -4 -13 -4 -30 1 -18 5 -30 5 -30 0 0 -6 -9 -6 -23 -1 -14 5
-30 5 -40 0 -11 -7 -17 -6 -17 1 0 8 -6 8 -20 0 -11 -6 -20 -7 -20 -3 0 4 -13
8 -30 9 -16 1 -27 -2 -25 -6 2 -4 -2 -7 -10 -7 -8 0 -15 4 -15 9 0 11 -23 6
-32 -7 -5 -6 -8 -4 -8 5 0 13 -1 13 -10 0 -9 -13 -10 -13 -10 0 0 13 -1 13
-10 0 -8 -12 -10 -12 -10 -1 0 11 -3 11 -15 1 -10 -8 -15 -9 -15 -1 0 7 -8 8
-25 1 -14 -5 -25 -6 -25 -2 0 4 -13 7 -30 8 -16 1 -27 -3 -24 -8 8 -12 -19 -5
-28 7 -5 6 -8 4 -8 -5 0 -12 -2 -12 -9 -1 -7 10 -13 11 -30 2 -11 -7 -21 -8
-21 -3 0 10 -36 9 -46 -1 -4 -3 -16 -2 -27 4 -15 9 -18 8 -12 -1z m6848 -75
c-7 -21 -12 -19 -10 4 0 11 5 18 9 15 4 -3 5 -11 1 -19z m-42 -298 c-10 -9
-11 -8 -5 6 3 10 9 15 12 12 3 -3 0 -11 -7 -18z"/>
</g>
</svg>
